<svg width="26" height="26" viewBox="0 0 26 26" fill="none" xmlns="http://www.w3.org/2000/svg">
<path d="M13 0C5.83442 0 0 5.82921 0 13C0 20.1708 5.83442 26 13 26C20.1708 26 26 20.1708 26 13C26 5.82921 20.1708 0 13 0ZM13 22.23C11.856 22.23 10.92 21.2992 10.92 20.15C10.92 19.0008 11.856 18.07 13 18.07C14.1492 18.07 15.08 19.0008 15.08 20.15C15.08 21.2992 14.1492 22.23 13 22.23ZM15.184 14.5496C15.132 15.7248 14.1752 16.64 13 16.64C11.83 16.64 10.868 15.7248 10.8212 14.5496L10.4624 6.42202C10.4312 5.7252 10.6808 5.05962 11.1644 4.5552C11.648 4.05082 12.3032 3.77 13 3.77C13.702 3.77 14.352 4.05082 14.8408 4.5552C15.3244 5.05962 15.574 5.7252 15.5428 6.42202L15.184 14.5496Z" fill="#F138E9"/>
</svg>
