<svg width="26" height="26" viewBox="0 0 26 26" fill="none" xmlns="http://www.w3.org/2000/svg">
<path d="M19.1599 2.73535H6.84406C5.75528 2.73535 4.71109 3.16787 3.9412 3.93776C3.17132 4.70764 2.7388 5.75183 2.7388 6.84062V19.1564C2.7388 20.2452 3.17132 21.2894 3.9412 22.0593C4.71109 22.8292 5.75528 23.2617 6.84406 23.2617H19.1599C20.2486 23.2617 21.2928 22.8292 22.0627 22.0593C22.8326 21.2894 23.2651 20.2452 23.2651 19.1564V6.84062C23.2651 5.75183 22.8326 4.70764 22.0627 3.93776C21.2928 3.16787 20.2486 2.73535 19.1599 2.73535ZM19.413 10.4669L13.303 16.5769L12.2562 17.6169C12.1199 17.7553 11.9575 17.8652 11.7784 17.9403C11.5992 18.0153 11.407 18.0539 11.2127 18.0539C11.0185 18.0539 10.8263 18.0153 10.6471 17.9403C10.468 17.8652 10.3056 17.7553 10.1693 17.6169L9.12933 16.5769L6.59091 14.0454C6.31431 13.7672 6.15905 13.3908 6.15905 12.9985C6.15905 12.6062 6.31431 12.2299 6.59091 11.9517C6.86641 11.6858 7.23434 11.5372 7.61722 11.5372C8.0001 11.5372 8.36804 11.6858 8.64354 11.9517L10.1351 13.4432C10.2714 13.5816 10.4338 13.6916 10.6129 13.7666C10.7921 13.8416 10.9843 13.8802 11.1785 13.8802C11.3727 13.8802 11.565 13.8416 11.7442 13.7666C11.9233 13.6916 12.0857 13.5816 12.222 13.4432L17.292 8.38009C17.5658 8.11098 17.9344 7.96019 18.3183 7.96019C18.7022 7.96019 19.0708 8.11098 19.3446 8.38009C19.63 8.64795 19.7976 9.01812 19.8104 9.40936C19.8232 9.8006 19.6803 10.1809 19.413 10.4669Z" fill="#15FFFF"/>
<path d="M19.1579 0H6.84211C5.02747 0 3.28715 0.720863 2.00401 2.00401C0.720863 3.28715 0 5.02747 0 6.84211V19.1579C0 20.9725 0.720863 22.7129 2.00401 23.996C3.28715 25.2791 5.02747 26 6.84211 26H19.1579C20.9725 26 22.7129 25.2791 23.996 23.996C25.2791 22.7129 26 20.9725 26 19.1579V6.84211C26 5.02747 25.2791 3.28715 23.996 2.00401C22.7129 0.720863 20.9725 0 19.1579 0ZM24.6316 19.1579C24.6316 20.6096 24.0549 22.0019 23.0284 23.0284C22.0019 24.0549 20.6096 24.6316 19.1579 24.6316H6.84211C5.39039 24.6316 3.99814 24.0549 2.97163 23.0284C1.94511 22.0019 1.36842 20.6096 1.36842 19.1579V6.84211C1.36842 5.39039 1.94511 3.99814 2.97163 2.97163C3.99814 1.94511 5.39039 1.36842 6.84211 1.36842H19.1579C20.6096 1.36842 22.0019 1.94511 23.0284 2.97163C24.0549 3.99814 24.6316 5.39039 24.6316 6.84211V19.1579Z" fill="#15FFFF"/>
<path d="M19.1599 2.73535H6.84406C5.75528 2.73535 4.71109 3.16787 3.9412 3.93776C3.17132 4.70764 2.7388 5.75183 2.7388 6.84062V19.1564C2.7388 20.2452 3.17132 21.2894 3.9412 22.0593C4.71109 22.8292 5.75528 23.2617 6.84406 23.2617H19.1599C20.2486 23.2617 21.2928 22.8292 22.0627 22.0593C22.8326 21.2894 23.2651 20.2452 23.2651 19.1564V6.84062C23.2651 5.75183 22.8326 4.70764 22.0627 3.93776C21.2928 3.16787 20.2486 2.73535 19.1599 2.73535ZM19.413 10.4669L13.303 16.5769L12.2562 17.6169C12.1199 17.7553 11.9575 17.8652 11.7784 17.9403C11.5992 18.0153 11.407 18.0539 11.2127 18.0539C11.0185 18.0539 10.8263 18.0153 10.6471 17.9403C10.468 17.8652 10.3056 17.7553 10.1693 17.6169L9.12933 16.5769L6.59091 14.0454C6.31431 13.7672 6.15905 13.3908 6.15905 12.9985C6.15905 12.6062 6.31431 12.2299 6.59091 11.9517C6.86641 11.6858 7.23434 11.5372 7.61722 11.5372C8.0001 11.5372 8.36804 11.6858 8.64354 11.9517L10.1351 13.4432C10.2714 13.5816 10.4338 13.6916 10.6129 13.7666C10.7921 13.8416 10.9843 13.8802 11.1785 13.8802C11.3727 13.8802 11.565 13.8416 11.7442 13.7666C11.9233 13.6916 12.0857 13.5816 12.222 13.4432L17.292 8.38009C17.5658 8.11098 17.9344 7.96019 18.3183 7.96019C18.7022 7.96019 19.0708 8.11098 19.3446 8.38009C19.63 8.64795 19.7976 9.01812 19.8104 9.40936C19.8232 9.8006 19.6803 10.1809 19.413 10.4669Z" fill="#15FFFF"/>
<path d="M19.1599 2.73535H6.84406C5.75528 2.73535 4.71109 3.16787 3.9412 3.93776C3.17132 4.70764 2.7388 5.75183 2.7388 6.84062V19.1564C2.7388 20.2452 3.17132 21.2894 3.9412 22.0593C4.71109 22.8292 5.75528 23.2617 6.84406 23.2617H19.1599C20.2486 23.2617 21.2928 22.8292 22.0627 22.0593C22.8326 21.2894 23.2651 20.2452 23.2651 19.1564V6.84062C23.2651 5.75183 22.8326 4.70764 22.0627 3.93776C21.2928 3.16787 20.2486 2.73535 19.1599 2.73535ZM19.413 10.4669L13.303 16.5769L12.2562 17.6169C12.1199 17.7553 11.9575 17.8652 11.7784 17.9403C11.5992 18.0153 11.407 18.0539 11.2127 18.0539C11.0185 18.0539 10.8263 18.0153 10.6471 17.9403C10.468 17.8652 10.3056 17.7553 10.1693 17.6169L9.12933 16.5769L6.59091 14.0454C6.31431 13.7672 6.15905 13.3908 6.15905 12.9985C6.15905 12.6062 6.31431 12.2299 6.59091 11.9517C6.86641 11.6858 7.23434 11.5372 7.61722 11.5372C8.0001 11.5372 8.36804 11.6858 8.64354 11.9517L10.1351 13.4432C10.2714 13.5816 10.4338 13.6916 10.6129 13.7666C10.7921 13.8416 10.9843 13.8802 11.1785 13.8802C11.3727 13.8802 11.565 13.8416 11.7442 13.7666C11.9233 13.6916 12.0857 13.5816 12.222 13.4432L17.292 8.38009C17.5658 8.11098 17.9344 7.96019 18.3183 7.96019C18.7022 7.96019 19.0708 8.11098 19.3446 8.38009C19.63 8.64795 19.7976 9.01812 19.8104 9.40936C19.8232 9.8006 19.6803 10.1809 19.413 10.4669Z" fill="#15FFFF"/>
</svg>
